<svg version="1.1" xmlns="http://www.w3.org/2000/svg" xmlns:xlink="http://www.w3.org/1999/xlink" width="515" height="420"><defs></defs><g><g transform="translate(-30,-14) scale(1,1)"><rect fill="#C0C0C0" stroke="none" x="275" y="31" width="83" height="44" opacity="0.2"></rect></g><g transform="translate(-30,-14) scale(1,1)"><rect fill="#ffffff" stroke="none" x="268" y="24" width="83" height="44"></rect></g><g transform="translate(-30,-14) scale(1,1)"><path fill="none" stroke="#000000" d="M 268 24 L 351 24 L 351 68 L 268 68 L 268 24 Z Z" stroke-miterlimit="10"></path></g><g transform="translate(-30,-14) scale(1,1)"><path fill="none" stroke="#000000" d="M 268 49 L 351 49" stroke-miterlimit="10"></path></g><g transform="translate(-30,-14) scale(1,1)"><path fill="none" stroke="#000000" d="M 268 59 L 351 59" stroke-miterlimit="10"></path></g><g transform="translate(-30,-14) scale(1,1)"><g><path fill="none" stroke="none"></path><text fill="#000000" stroke="none" font-family="Arial" font-size="13px" font-style="normal" font-weight="bold" text-decoration="none" x="276" y="43.5">CardBuilder</text></g></g><g transform="translate(-30,-14) scale(1,1)"><rect fill="#C0C0C0" stroke="none" x="267" y="115" width="97" height="44" opacity="0.2"></rect></g><g transform="translate(-30,-14) scale(1,1)"><rect fill="#ffffff" stroke="none" x="260" y="108" width="97" height="44"></rect></g><g transform="translate(-30,-14) scale(1,1)"><path fill="none" stroke="#000000" d="M 260 108 L 357 108 L 357 152 L 260 152 L 260 108 Z Z" stroke-miterlimit="10"></path></g><g transform="translate(-30,-14) scale(1,1)"><path fill="none" stroke="#000000" d="M 260 133 L 357 133" stroke-miterlimit="10"></path></g><g transform="translate(-30,-14) scale(1,1)"><path fill="none" stroke="#000000" d="M 260 143 L 357 143" stroke-miterlimit="10"></path></g><g transform="translate(-30,-14) scale(1,1)"><g><path fill="none" stroke="none"></path><text fill="#000000" stroke="none" font-family="Arial" font-size="13px" font-style="normal" font-weight="bold" text-decoration="none" x="267" y="127.5">CardPresenter</text></g></g><g transform="translate(-30,-14) scale(1,1)"><rect fill="#C0C0C0" stroke="none" x="247" y="207" width="137" height="44" opacity="0.2"></rect></g><g transform="translate(-30,-14) scale(1,1)"><rect fill="#ffffff" stroke="none" x="240" y="200" width="137" height="44"></rect></g><g transform="translate(-30,-14) scale(1,1)"><path fill="none" stroke="#000000" d="M 240 200 L 377 200 L 377 244 L 240 244 L 240 200 Z Z" stroke-miterlimit="10"></path></g><g transform="translate(-30,-14) scale(1,1)"><path fill="none" stroke="#000000" d="M 240 225 L 377 225" stroke-miterlimit="10"></path></g><g transform="translate(-30,-14) scale(1,1)"><path fill="none" stroke="#000000" d="M 240 235 L 377 235" stroke-miterlimit="10"></path></g><g transform="translate(-30,-14) scale(1,1)"><g><path fill="none" stroke="none"></path><text fill="#000000" stroke="none" font-family="Arial" font-size="13px" font-style="normal" font-weight="bold" text-decoration="none" x="247.5" y="219.5">TextResultProcessor</text></g></g><g transform="translate(-30,-14) scale(1,1)"><rect fill="#C0C0C0" stroke="none" x="47" y="207" width="149" height="44" opacity="0.2"></rect></g><g transform="translate(-30,-14) scale(1,1)"><rect fill="#ffffff" stroke="none" x="40" y="200" width="149" height="44"></rect></g><g transform="translate(-30,-14) scale(1,1)"><path fill="none" stroke="#000000" d="M 40 200 L 189 200 L 189 244 L 40 244 L 40 200 Z Z" stroke-miterlimit="10"></path></g><g transform="translate(-30,-14) scale(1,1)"><path fill="none" stroke="#000000" d="M 40 225 L 189 225" stroke-miterlimit="10"></path></g><g transform="translate(-30,-14) scale(1,1)"><path fill="none" stroke="#000000" d="M 40 235 L 189 235" stroke-miterlimit="10"></path></g><g transform="translate(-30,-14) scale(1,1)"><g><path fill="none" stroke="none"></path><text fill="#000000" stroke="none" font-family="Arial" font-size="13px" font-style="normal" font-weight="bold" text-decoration="none" x="49.5" y="219.5">DownloadProductTask</text></g></g><g transform="translate(-30,-14) scale(1,1)"><rect fill="#C0C0C0" stroke="none" x="431" y="207" width="111" height="44" opacity="0.2"></rect></g><g transform="translate(-30,-14) scale(1,1)"><rect fill="#ffffff" stroke="none" x="424" y="200" width="111" height="44"></rect></g><g transform="translate(-30,-14) scale(1,1)"><path fill="none" stroke="#000000" d="M 424 200 L 535 200 L 535 244 L 424 244 L 424 200 Z Z" stroke-miterlimit="10"></path></g><g transform="translate(-30,-14) scale(1,1)"><path fill="none" stroke="#000000" d="M 424 225 L 535 225" stroke-miterlimit="10"></path></g><g transform="translate(-30,-14) scale(1,1)"><path fill="none" stroke="#000000" d="M 424 235 L 535 235" stroke-miterlimit="10"></path></g><g transform="translate(-30,-14) scale(1,1)"><g><path fill="none" stroke="none"></path><text fill="#000000" stroke="none" font-family="Arial" font-size="13px" font-style="normal" font-weight="bold" text-decoration="none" x="431.5" y="219.5">ResultProcessor</text></g></g><g transform="translate(-30,-14) scale(1,1)"><rect fill="#C0C0C0" stroke="none" x="235" y="295" width="157" height="44" opacity="0.2"></rect></g><g transform="translate(-30,-14) scale(1,1)"><rect fill="#ffffff" stroke="none" x="228" y="288" width="157" height="44"></rect></g><g transform="translate(-30,-14) scale(1,1)"><path fill="none" stroke="#000000" d="M 228 288 L 385 288 L 385 332 L 228 332 L 228 288 Z Z" stroke-miterlimit="10"></path></g><g transform="translate(-30,-14) scale(1,1)"><path fill="none" stroke="#000000" d="M 228 313 L 385 313" stroke-miterlimit="10"></path></g><g transform="translate(-30,-14) scale(1,1)"><path fill="none" stroke="#000000" d="M 228 323 L 385 323" stroke-miterlimit="10"></path></g><g transform="translate(-30,-14) scale(1,1)"><g><path fill="none" stroke="none"></path><text fill="#000000" stroke="none" font-family="Arial" font-size="13px" font-style="normal" font-weight="bold" text-decoration="none" x="236.5" y="307.5">ResultProcessorFactory</text></g></g><g transform="translate(-30,-14) scale(1,1)"><rect fill="#C0C0C0" stroke="none" x="259" y="387" width="103" height="44" opacity="0.2"></rect></g><g transform="translate(-30,-14) scale(1,1)"><rect fill="#ffffff" stroke="none" x="252" y="380" width="103" height="44"></rect></g><g transform="translate(-30,-14) scale(1,1)"><path fill="none" stroke="#000000" d="M 252 380 L 355 380 L 355 424 L 252 424 L 252 380 Z Z" stroke-miterlimit="10"></path></g><g transform="translate(-30,-14) scale(1,1)"><path fill="none" stroke="#000000" d="M 252 405 L 355 405" stroke-miterlimit="10"></path></g><g transform="translate(-30,-14) scale(1,1)"><path fill="none" stroke="#000000" d="M 252 415 L 355 415" stroke-miterlimit="10"></path></g><g transform="translate(-30,-14) scale(1,1)"><g><path fill="none" stroke="none"></path><text fill="#000000" stroke="none" font-family="Arial" font-size="13px" font-style="normal" font-weight="bold" text-decoration="none" x="259" y="399.5">CaptureActivity</text></g></g><g transform="translate(-30,-14) scale(1,1)"><path fill="none" stroke="#000000" d="M 308 107 L 309 69" stroke-miterlimit="10" stroke-dasharray="3"></path></g><g transform="translate(-30,-14) scale(1,1)"><path fill="none" stroke="#000000" d="M 312.9407146667412 79.2698961978849 L 309 69 L 304.5245928199676 79.04841930718034" stroke-miterlimit="10"></path></g><g transform="translate(-30,-14) scale(1,1)"><path fill="none" stroke="#000000" d="M 304 379 L 305 333" stroke-miterlimit="10" stroke-dasharray="3"></path></g><g transform="translate(-30,-14) scale(1,1)"><path fill="none" stroke="#000000" d="M 308.9876478921751 343.25176395982817 L 305 333 L 300.57060105042297 343.06878468065963" stroke-miterlimit="10"></path></g><g transform="translate(-30,-14) scale(1,1)"><path fill="none" stroke="#000000" d="M 307 287 L 307 245" stroke-miterlimit="10" stroke-dasharray="3"></path></g><g transform="translate(-30,-14) scale(1,1)"><path fill="none" stroke="#000000" d="M 311.209517756016 255.16267485762415 L 307 245 L 302.790482243984 255.16267485762415" stroke-miterlimit="10"></path></g><g transform="translate(-30,-14) scale(1,1)"><path fill="none" stroke="#000000" d="M 308 153 L 308 199" stroke-miterlimit="10"></path></g><g transform="translate(-30,-14) scale(1,1)"><path fill="#000000" stroke="none" d="M 303.790482243984 188.83732514237585 L 308 199 L 312.209517756016 188.83732514237585 L 308 177"></path></g><g transform="translate(-30,-14) scale(1,1)"><path fill="none" stroke="#000000" d="M 303.790482243984 188.83732514237585 L 308 199 L 312.209517756016 188.83732514237585 L 308 177 L 303.790482243984 188.83732514237585" stroke-miterlimit="10"></path></g><g transform="translate(-30,-14) scale(1,1)"><path fill="none" stroke="#000000" d="M 190 222 L 239 222" stroke-miterlimit="10"></path></g><g transform="translate(-30,-14) scale(1,1)"><path fill="#000000" stroke="none" d="M 228.83732514237585 226.209517756016 L 239 222 L 228.83732514237585 217.790482243984 L 217 222"></path></g><g transform="translate(-30,-14) scale(1,1)"><path fill="none" stroke="#000000" d="M 228.83732514237585 226.209517756016 L 239 222 L 228.83732514237585 217.790482243984 L 217 222 L 228.83732514237585 226.209517756016" stroke-miterlimit="10"></path></g><g transform="translate(-30,-14) scale(1,1)"><path fill="none" stroke="#000000" d="M 378 222 L 423 222" stroke-miterlimit="10"></path></g><g transform="translate(-30,-14) scale(1,1)"><path fill="#FFFFFF" stroke="none" d="M 402.6746502847517 230.41903551203197 L 423 222 L 402.6746502847517 213.58096448796803"></path></g><g transform="translate(-30,-14) scale(1,1)"><path fill="none" stroke="#000000" d="M 402.6746502847517 230.41903551203197 L 423 222 L 402.6746502847517 213.58096448796803 L 402.6746502847517 230.41903551203197" stroke-miterlimit="10"></path></g></g></svg>