<svg version="1.1" xmlns="http://www.w3.org/2000/svg" xmlns:xlink="http://www.w3.org/1999/xlink" width="192" height="332"><defs></defs><g><g transform="translate(-182,-50) scale(1,1)"><rect fill="#C0C0C0" stroke="none" x="251" y="67" width="68" height="44" opacity="0.2"></rect></g><g transform="translate(-182,-50) scale(1,1)"><rect fill="#ffffff" stroke="none" x="244" y="60" width="68" height="44"></rect></g><g transform="translate(-182,-50) scale(1,1)"><path fill="none" stroke="#000000" d="M 244 60 L 312 60 L 312 104 L 244 104 L 244 60 Z Z" stroke-miterlimit="10"></path></g><g transform="translate(-182,-50) scale(1,1)"><path fill="none" stroke="#000000" d="M 244 85 L 312 85" stroke-miterlimit="10"></path></g><g transform="translate(-182,-50) scale(1,1)"><path fill="none" stroke="#000000" d="M 244 95 L 312 95" stroke-miterlimit="10"></path></g><g transform="translate(-182,-50) scale(1,1)"><g><path fill="none" stroke="none"></path><text fill="#000000" stroke="none" font-family="Arial" font-size="13px" font-style="normal" font-weight="bold" text-decoration="none" x="250.5" y="79.5">Fragment</text></g></g><g transform="translate(-182,-50) scale(1,1)"><rect fill="#C0C0C0" stroke="none" x="203" y="155" width="168" height="44" opacity="0.2"></rect></g><g transform="translate(-182,-50) scale(1,1)"><rect fill="#ffffff" stroke="none" x="196" y="148" width="168" height="44"></rect></g><g transform="translate(-182,-50) scale(1,1)"><path fill="none" stroke="#000000" d="M 196 148 L 364 148 L 364 192 L 196 192 L 196 148 Z Z" stroke-miterlimit="10"></path></g><g transform="translate(-182,-50) scale(1,1)"><path fill="none" stroke="#000000" d="M 196 173 L 364 173" stroke-miterlimit="10"></path></g><g transform="translate(-182,-50) scale(1,1)"><path fill="none" stroke="#000000" d="M 196 183 L 364 183" stroke-miterlimit="10"></path></g><g transform="translate(-182,-50) scale(1,1)"><g><path fill="none" stroke="none"></path><text fill="#000000" stroke="none" font-family="Arial" font-size="13px" font-style="normal" font-weight="bold" text-decoration="none" x="205.5" y="167.5">ScreenSlidePagerAdapter</text></g></g><g transform="translate(-182,-50) scale(1,1)"><rect fill="#C0C0C0" stroke="none" x="211" y="243" width="149" height="44" opacity="0.2"></rect></g><g transform="translate(-182,-50) scale(1,1)"><rect fill="#ffffff" stroke="none" x="204" y="236" width="149" height="44"></rect></g><g transform="translate(-182,-50) scale(1,1)"><path fill="none" stroke="#000000" d="M 204 236 L 353 236 L 353 280 L 204 280 L 204 236 Z Z" stroke-miterlimit="10"></path></g><g transform="translate(-182,-50) scale(1,1)"><path fill="none" stroke="#000000" d="M 204 261 L 353 261" stroke-miterlimit="10"></path></g><g transform="translate(-182,-50) scale(1,1)"><path fill="none" stroke="#000000" d="M 204 271 L 353 271" stroke-miterlimit="10"></path></g><g transform="translate(-182,-50) scale(1,1)"><g><path fill="none" stroke="none"></path><text fill="#000000" stroke="none" font-family="Arial" font-size="13px" font-style="normal" font-weight="bold" text-decoration="none" x="213.5" y="255.5">DownloadProductTask</text></g></g><g transform="translate(-182,-50) scale(1,1)"><rect fill="#C0C0C0" stroke="none" x="199" y="335" width="166" height="44" opacity="0.2"></rect></g><g transform="translate(-182,-50) scale(1,1)"><rect fill="#ffffff" stroke="none" x="192" y="328" width="166" height="44"></rect></g><g transform="translate(-182,-50) scale(1,1)"><path fill="none" stroke="#000000" d="M 192 328 L 358 328 L 358 372 L 192 372 L 192 328 Z Z" stroke-miterlimit="10"></path></g><g transform="translate(-182,-50) scale(1,1)"><path fill="none" stroke="#000000" d="M 192 353 L 358 353" stroke-miterlimit="10"></path></g><g transform="translate(-182,-50) scale(1,1)"><path fill="none" stroke="#000000" d="M 192 363 L 358 363" stroke-miterlimit="10"></path></g><g transform="translate(-182,-50) scale(1,1)"><g><path fill="none" stroke="none"></path><text fill="#000000" stroke="none" font-family="Arial" font-size="13px" font-style="normal" font-weight="bold" text-decoration="none" x="201" y="347.5">ScreenSlidePagerActivity</text></g></g><g transform="translate(-182,-50) scale(1,1)"><path fill="none" stroke="#000000" d="M 279 147 L 279 105" stroke-miterlimit="10" stroke-dasharray="3"></path></g><g transform="translate(-182,-50) scale(1,1)"><path fill="none" stroke="#000000" d="M 283.209517756016 115.16267485762415 L 279 105 L 274.790482243984 115.16267485762415" stroke-miterlimit="10"></path></g><g transform="translate(-182,-50) scale(1,1)"><path fill="none" stroke="#000000" d="M 276 327 L 277 281" stroke-miterlimit="10" stroke-dasharray="3"></path></g><g transform="translate(-182,-50) scale(1,1)"><path fill="none" stroke="#000000" d="M 280.9876478921751 291.25176395982817 L 277 281 L 272.57060105042297 291.06878468065963" stroke-miterlimit="10"></path></g><g transform="translate(-182,-50) scale(1,1)"><path fill="none" stroke="#000000" d="M 279 235 L 279 193" stroke-miterlimit="10"></path></g></g></svg>